{"title":"Planes.Fire.And.Rescue.2014.CAM.XviD-VAiN","uid":10648458,"size":1093147594,"categoryP":"video","categoryS":"movies","magnet":"?xt=urn:btih:fd57da6086a27dc991f12bcd8cfcdbf3b7c88fba&amp;dn=Planes.Fire.And.Rescue.2014.CAM.XviD-VAiN&amp;tr=udp%3A%2F%2Ftracker.openbittorrent.com%3A80&amp;tr=udp%3A%2F%2Fopen.demonii.com%3A1337&amp;tr=udp%3A%2F%2Ftracker.coppersurfer.tk%3A6969&amp;tr=udp%3A%2F%2Fexodus.desync.com%3A6969","seeders":2,"leechers":0,"uploader":"lokioddin","files":4,"time":1406577365,"description":"SilverTorrent - Clean And Verified Torrents Download\n\n\nPlanes Fire And Rescue 2014 CAM XviD-VAiN\n\niMDB........: http://www.imdb.com/title/tt2980706/\n\nWhen Dusty learns that his engine is damaged and he may never race again, he joins a forest fire and rescue unit to be trained as a firefighter.\n\n\nT E C H N i C A L . i N F O . . .  \n   \nGeneral\nFormat                                   : AVI\nFormat/Info                              : Audio Video Interleave\nFile size                                : 1.00 GiB\nDuration                                 : 1h 13mn\nOverall bit rate                         : 1 940 Kbps\nWriting application                      : VirtualDubMod 1.5.10.2 (build 2540/release)\nWriting library                          : VirtualDubMod build 2540/release\n\nVideo\nID                                       : 0\nFormat                                   : MPEG-4 Visual\nFormat profile                           : Advanced Simple@L5\nFormat settings, BVOP                    : 1\nFormat settings, QPel                    : No\nFormat settings, GMC                     : No warppoints\nFormat settings, Matrix                  : Default (MPEG)\nCodec ID                                 : XVID\nCodec ID/Hint                            : XviD\nDuration                                 : 1h 13mn\nBit rate                                 : 1 739 Kbps\nWidth                                    : 720 pixels\nHeight                                   : 384 pixels\nDisplay aspect ratio                     : 1.85:1\nFrame rate                               : 23.976 fps\nColor space                              : YUV\nChroma subsampling                       : 4:2:0\nBit depth                                : 8 bits\nScan type                                : Progressive\nCompression mode                         : Lossy\nBits/(Pixel*Frame)                       : 0.262\nStream size                              : 919 MiB (90%)\nWriting library                          : XviD 1.2.1 (UTC 2008-12-04)\n\nAudio\nID                                       : 1\nFormat                                   : MPEG Audio\nFormat version                           : Version 1\nFormat profile                           : Layer 3\nMode                                     : Joint stereo\nMode extension                           : MS Stereo\nCodec ID                                 : 55\nCodec ID/Hint                            : MP3\nDuration                                 : 1h 13mn\nBit rate mode                            : Constant\nBit rate                                 : 192 Kbps\nChannel(s)                               : 2 channels\nSampling rate                            : 48.0 KHz\nCompression mode                         : Lossy\nDelay relative to video                  : 1s 488ms\nStream size                              : 102 MiB (10%)\nAlignment                                : Split accross interleaves\nInterleave, duration                     : 42 ms (1.00 video frame)\nInterleave, preload duration             : 504 ms\n\n\nSilverTorrent - Clean And Verified Torrents Download\n","torrent":{"xt":"urn:btih:fd57da6086a27dc991f12bcd8cfcdbf3b7c88fba","amp;dn":"Planes.Fire.And.Rescue.2014.CAM.XviD-VAiN","amp;tr":["udp%3A%2F%2Ftracker.openbittorrent.com%3A80","udp%3A%2F%2Fopen.demonii.com%3A1337","udp%3A%2F%2Ftracker.coppersurfer.tk%3A6969","udp%3A%2F%2Fexodus.desync.com%3A6969"],"infoHash":"fd57da6086a27dc991f12bcd8cfcdbf3b7c88fba","infoHashBuffer":{"type":"Buffer","data":[253,87,218,96,134,162,125,201,145,241,43,205,140,252,219,243,183,200,143,186]},"announce":[],"urlList":[]}}